<?xml version="1.0" standalone="no"?>
<!DOCTYPE svg PUBLIC "-//W3C//DTD SVG 20010904//EN"
 "http://www.w3.org/TR/2001/REC-SVG-20010904/DTD/svg10.dtd">
<svg version="1.0" xmlns="http://www.w3.org/2000/svg"
 width="2134.000000pt" height="2134.000000pt" viewBox="0 0 2134.000000 2134.000000"
 preserveAspectRatio="xMidYMid meet">

<g transform="translate(0.000000,2134.000000) scale(0.100000,-0.100000)"
fill="#ffffff" stroke="none">
<path d="M9690 20780 c0 -5 9 -10 19 -10 11 0 23 5 26 10 4 6 -5 10 -19 10
-14 0 -26 -4 -26 -10z"/>
<path d="M10891 20708 c-19 -30 -70 -47 -214 -69 -156 -23 -218 -40 -271 -73
-37 -22 -42 -23 -63 -9 -33 22 -130 12 -223 -24 l-75 -28 54 -3 c34 -2 74 4
114 17 60 21 147 28 147 14 -1 -26 -17 -31 -57 -20 -41 11 -42 10 -86 -30 -40
-37 -120 -73 -162 -73 -6 0 -36 -24 -67 -54 -63 -59 -63 -59 -263 -72 l-100
-7 20 -43 c18 -39 24 -44 53 -44 17 0 32 5 32 11 0 7 -12 10 -30 7 -20 -3 -30
0 -30 9 0 32 91 60 144 45 l30 -8 -40 -24 c-21 -13 -62 -39 -91 -57 -49 -32
-53 -33 -80 -20 -15 8 -37 24 -47 36 -27 30 -50 26 -97 -16 -34 -31 -44 -35
-59 -25 -15 9 -24 6 -53 -21 -44 -43 -200 -94 -206 -69 -2 9 5 22 15 29 17 12
17 13 -3 13 -11 0 -53 -22 -94 -50 -86 -58 -128 -70 -164 -46 -23 15 -26 15
-31 1 -8 -21 -31 -19 -39 4 -7 22 -29 33 -50 25 -18 -7 -19 -27 -5 -55 13 -24
9 -24 -38 0 -20 10 -70 30 -109 45 -72 25 -73 25 -73 5 0 -21 -60 -89 -78 -89
-5 0 -9 15 -8 33 1 30 -1 32 -37 35 -46 4 -84 -18 -93 -53 -3 -14 -10 -25 -16
-25 -22 0 -68 32 -68 47 0 13 -10 8 -37 -19 -64 -60 -108 -73 -151 -42 -21 14
-24 13 -64 -20 -108 -93 -306 -110 -402 -35 -34 27 -64 20 -116 -27 l-39 -36
-35 28 c-19 15 -33 31 -31 35 18 29 391 166 430 157 14 -3 14 -5 -1 -26 -8
-13 -33 -34 -55 -48 -24 -15 -39 -32 -39 -44 0 -23 1 -24 34 -9 20 10 32 8 66
-10 48 -25 79 -27 106 -5 18 14 17 15 -18 9 -43 -7 -45 -1 -24 50 33 78 104
144 230 211 l61 34 -45 0 c-57 0 -135 -36 -193 -89 -41 -38 -47 -41 -88 -35
-27 4 -85 -2 -152 -15 -59 -12 -122 -21 -138 -21 -44 0 -92 26 -112 60 l-18
29 -35 -24 c-54 -37 -92 -40 -197 -15 -128 30 -125 29 -131 13 -18 -46 2 -55
91 -44 89 11 124 -7 87 -43 -12 -13 -29 -15 -83 -10 -61 6 -71 4 -90 -15 -41
-41 -64 -21 -39 34 9 19 9 28 0 37 -16 16 -50 -1 -246 -124 -89 -56 -193 -116
-233 -135 -143 -66 -288 -78 -165 -13 l37 19 -37 1 c-25 0 -41 6 -51 20 l-14
20 -18 -20 c-19 -21 -51 -28 -39 -9 3 6 -4 5 -18 -3 -14 -7 -48 -41 -76 -75
-28 -34 -61 -64 -72 -68 -22 -7 -26 -20 -10 -30 20 -12 9 -30 -31 -52 l-41
-23 5 25 c4 25 4 25 -22 8 -14 -9 -140 -88 -279 -175 -403 -252 -466 -298
-543 -395 -27 -35 -54 -63 -59 -63 -16 0 -12 32 7 52 15 17 15 18 -7 18 -28 0
-110 -81 -110 -109 0 -14 -14 -23 -53 -36 -76 -25 -139 -64 -257 -160 -57 -47
-128 -97 -156 -112 -49 -25 -52 -29 -47 -59 6 -37 -28 -80 -120 -151 -48 -37
-58 -50 -54 -69 9 -49 -47 -58 -59 -9 -8 34 -20 32 -73 -13 -25 -21 -99 -82
-165 -136 l-119 -97 -32 31 c-27 26 -34 29 -44 16 -10 -12 -8 -17 8 -26 30
-16 26 -37 -9 -43 -21 -5 -39 -21 -66 -61 -37 -56 -72 -79 -114 -74 -30 4 -41
-30 -16 -48 15 -10 10 -14 -30 -28 -26 -9 -55 -16 -65 -16 -19 0 -222 -211
-408 -423 -749 -858 -1351 -1849 -1776 -2922 -607 -1532 -821 -3230 -619
-4910 124 -1024 406 -2019 844 -2970 122 -265 180 -361 180 -295 0 32 -24 82
-80 165 -61 91 -100 171 -99 205 l0 25 16 -23 c22 -32 40 -28 83 20 36 41 39
42 63 29 66 -35 148 -197 132 -259 -7 -26 -8 -25 -31 25 -17 39 -29 53 -44 53
-24 0 -24 3 1 -54 11 -26 30 -92 43 -147 l22 -99 23 24 c30 32 62 20 59 -21
-2 -18 5 -31 22 -42 14 -9 36 -27 49 -40 29 -28 16 -41 -41 -41 -55 0 -48 -23
15 -53 28 -15 71 -45 94 -69 37 -38 45 -55 67 -141 43 -169 176 -444 318 -655
27 -41 60 -97 73 -125 l24 -51 -29 -14 c-17 -8 -30 -17 -30 -21 0 -17 137
-187 148 -184 7 3 12 -5 12 -21 0 -30 23 -47 96 -70 45 -15 53 -22 68 -58 8
-23 14 -44 11 -47 -3 -2 -26 10 -51 27 -25 18 -42 26 -37 19 19 -32 98 -127
106 -127 4 0 22 10 38 23 l31 22 32 -37 33 -37 -9 60 c-4 33 -15 70 -23 82
-20 29 -19 37 5 37 46 0 115 -59 202 -170 74 -96 101 -165 44 -111 -24 22 -25
22 -19 3 3 -12 34 -54 69 -94 35 -40 64 -77 64 -82 0 -5 -7 -17 -15 -26 -25
-27 38 -90 147 -147 108 -55 143 -99 153 -192 15 -142 23 -164 49 -142 13 11
17 9 27 -15 49 -117 58 -133 83 -140 47 -11 90 17 46 31 -52 17 -90 116 -55
145 8 7 15 8 15 3 0 -34 77 -115 212 -224 155 -126 266 -229 310 -289 25 -34
25 -34 52 -17 26 17 26 17 59 -20 69 -81 129 -129 325 -259 111 -74 232 -162
267 -196 l65 -60 19 23 18 23 12 -36 c15 -46 47 -74 110 -98 28 -11 51 -18 51
-16 0 2 -7 17 -15 32 -8 16 -15 37 -15 46 0 10 -10 26 -22 38 -36 33 -11 23
65 -27 99 -64 144 -83 200 -83 53 0 58 -10 23 -38 l-25 -19 35 -17 c20 -9 68
-21 108 -27 71 -11 73 -12 105 -59 22 -32 31 -55 27 -68 -5 -16 27 -39 222
-155 125 -76 231 -137 235 -137 11 0 8 55 -3 86 -9 22 -7 31 10 49 l20 22 -97
38 c-181 71 -235 109 -272 195 -23 54 -35 61 -51 30 -16 -29 -30 -24 -30 10 0
36 18 38 101 14 116 -35 199 -96 199 -148 0 -20 11 -26 93 -49 51 -15 101 -27
110 -27 22 0 47 60 47 112 0 34 -7 47 -40 81 -45 45 -65 43 -31 -3 34 -47 15
-83 -50 -91 -19 -3 -40 7 -73 34 -60 50 -75 76 -51 93 17 12 13 34 -6 34 -5 0
-27 -12 -49 -26 -22 -15 -42 -25 -44 -23 -2 2 -8 20 -13 39 -8 30 -14 35 -43
38 -42 4 -50 15 -50 69 0 41 -2 44 -52 69 -82 41 -231 143 -363 248 -111 88
-120 93 -128 74 -7 -19 -10 -17 -36 24 -16 25 -67 78 -115 118 -47 40 -86 75
-86 78 0 3 8 14 17 24 16 17 12 23 -84 121 -100 102 -199 222 -242 291 -22 35
-24 36 -41 21 -20 -18 -45 -11 -71 21 -30 37 -93 74 -124 74 -31 0 -34 4 -55
59 -12 32 -20 74 -18 92 2 26 -1 34 -14 37 -14 3 -18 -3 -18 -27 0 -36 -32
-60 -55 -41 -8 6 -28 54 -45 106 -18 53 -42 107 -55 122 -23 27 -23 27 -59 9
l-37 -17 -14 35 c-8 19 -15 41 -15 48 0 8 -5 28 -11 46 -11 32 -29 42 -29 16
0 -31 -19 -13 -36 36 -25 70 -50 91 -136 116 -107 32 -121 50 -128 168 -5 88
-7 97 -35 125 -16 16 -59 49 -94 72 -73 49 -100 80 -110 129 -6 30 -15 38 -76
69 l-70 35 -78 145 c-94 177 -109 209 -147 317 l-30 85 51 64 c28 35 62 67 75
70 l24 6 -31 44 c-39 57 -77 143 -90 205 -9 42 -8 54 6 75 14 22 22 25 48 20
40 -8 77 -49 77 -85 0 -16 9 -36 21 -47 12 -10 35 -39 52 -64 17 -25 47 -64
68 -87 44 -48 73 -134 64 -186 -6 -30 -1 -40 58 -109 36 -42 138 -170 228
-285 295 -375 408 -502 559 -627 121 -101 170 -131 189 -117 44 32 82 42 120
31 80 -21 188 -135 254 -265 24 -48 44 -70 101 -112 82 -61 225 -183 376 -322
245 -225 442 -384 468 -379 9 2 19 14 22 27 l5 23 19 -21 c12 -13 17 -30 14
-45 -3 -15 0 -27 8 -30 8 -3 14 -12 14 -21 0 -11 10 -15 36 -15 22 0 68 -16
116 -40 92 -46 110 -48 138 -20 22 22 23 21 38 -40 5 -23 19 -41 40 -53 31
-18 32 -18 39 0 3 10 19 34 35 54 29 39 25 49 -22 49 -23 0 -52 28 -44 42 5 7
47 9 123 6 90 -4 128 -10 167 -27 46 -20 52 -26 58 -59 11 -66 8 -82 -15 -82
-11 0 -17 -4 -14 -10 12 -20 53 -9 95 24 42 33 45 34 79 21 20 -8 77 -24 128
-35 104 -24 148 -49 178 -101 19 -33 22 -34 45 -22 14 7 59 13 100 13 41 0 90
4 108 9 25 8 32 7 32 -4 0 -16 30 -35 54 -35 11 0 18 13 22 40 4 22 10 40 15
40 20 0 7 21 -24 37 -26 15 -57 18 -175 18 l-143 0 -33 35 c-32 35 -32 35 -49
15 -11 -13 -19 -16 -24 -9 -14 20 -47 31 -113 38 -86 10 -102 19 -98 59 l3 32
275 0 275 0 0 -39 0 -38 145 -45 c123 -38 162 -46 258 -50 106 -6 112 -7 112
-27 0 -30 18 -46 51 -46 45 0 76 -17 83 -44 8 -34 17 -33 38 4 16 29 38 40 38
20 0 -20 59 -38 145 -43 50 -3 99 -7 109 -9 15 -2 24 7 37 42 18 47 35 61 45
36 9 -22 24 -20 24 3 0 11 -9 23 -20 26 -27 9 -87 -12 -103 -36 -13 -18 -16
-18 -57 -4 -23 8 -76 15 -116 15 -64 0 -75 3 -84 21 -8 14 -8 29 -2 49 l10 28
-70 10 c-54 8 -77 17 -98 37 l-28 27 -17 -31 c-30 -60 -63 -58 -205 14 -67 34
-79 37 -139 33 -57 -4 -68 -2 -83 16 -10 12 -17 24 -18 29 0 4 158 7 351 7
l351 0 192 -86 c105 -48 227 -106 271 -129 44 -24 105 -48 135 -54 102 -21
244 -72 382 -138 111 -53 149 -66 201 -70 40 -4 72 -1 86 6 19 11 29 8 69 -18
26 -16 74 -38 107 -47 90 -28 29 -30 -81 -4 -101 24 -149 31 -394 60 -96 11
-211 27 -256 36 l-80 16 -38 -26 c-49 -33 -64 -33 -169 4 -48 17 -94 30 -103
30 -23 0 -12 -22 25 -47 41 -28 113 -43 206 -43 72 0 74 -1 94 -32 26 -43 96
-109 148 -142 l42 -25 3 27 c2 18 8 26 18 23 8 -2 34 -9 58 -15 46 -12 51 -23
25 -64 l-18 -26 25 17 c49 34 101 19 203 -60 42 -33 62 -42 69 -35 8 8 6 18
-6 36 -26 40 -20 46 32 32 26 -8 60 -13 76 -12 36 1 43 -17 17 -43 l-21 -21
68 0 c84 0 139 -27 122 -60 -6 -12 -21 -20 -36 -20 -19 0 -25 -5 -22 -18 3
-14 -9 -19 -82 -28 -126 -16 -312 -56 -302 -66 4 -4 62 -11 127 -14 125 -7
185 -22 185 -48 0 -45 -241 -56 -384 -17 -44 11 -81 19 -83 17 -3 -2 0 -13 6
-23 11 -23 69 -49 126 -58 l40 -7 -25 -14 c-14 -7 -20 -14 -15 -15 13 -3 -127
-15 -292 -24 l-132 -8 -10 -28 c-13 -38 -39 -43 -131 -24 -63 13 -84 14 -102
4 -22 -12 -22 -12 -3 -20 11 -4 36 -8 56 -8 61 -1 216 -46 369 -106 183 -71
241 -85 366 -85 77 0 105 -4 114 -15 6 -8 9 -19 6 -24 -12 -20 41 -35 167 -47
92 -9 137 -18 162 -33 33 -19 34 -19 50 -1 48 53 144 61 280 24 33 -9 93 -22
133 -29 66 -12 78 -11 135 7 79 25 266 53 482 73 365 33 555 64 694 113 78 28
80 28 96 9 14 -16 23 -18 63 -11 60 11 119 11 157 1 l30 -8 -25 20 c-33 26
-25 31 35 21 28 -5 174 -9 325 -9 246 -1 382 -10 398 -26 11 -11 -18 -28 -64
-36 -56 -11 -74 -23 -56 -41 13 -13 99 6 301 67 87 26 198 33 258 16 29 -8 31
-7 36 19 4 16 23 41 48 60 l41 33 32 -37 c23 -27 36 -36 49 -30 25 9 17 36
-16 52 -40 19 -33 32 18 32 37 0 145 28 206 54 12 5 16 0 17 -26 0 -18 4 -49
7 -69 6 -32 4 -37 -15 -42 -12 -3 -37 2 -56 10 -28 14 -38 14 -61 3 l-28 -13
30 -13 c17 -7 62 -13 100 -14 49 0 82 -6 108 -19 25 -13 37 -15 37 -7 0 22
-25 46 -55 54 -25 7 -30 14 -33 45 -6 74 98 149 185 132 38 -7 39 -23 4 -41
-21 -11 -20 -13 27 -43 69 -44 83 -42 76 12 -4 28 0 60 13 97 19 53 20 55 64
61 24 4 71 19 104 34 84 38 140 54 155 45 20 -13 2 -30 -65 -60 -69 -31 -79
-41 -70 -70 6 -18 9 -17 41 16 33 36 35 37 96 31 35 -3 71 -8 82 -12 15 -7 17
-5 11 14 -5 18 1 30 32 60 79 75 250 113 327 72 l38 -20 22 23 c11 12 29 37
39 55 14 28 21 32 42 27 19 -5 25 -2 25 10 0 28 47 81 114 129 35 25 66 45 70
45 11 0 6 -36 -6 -49 -11 -10 -9 -12 6 -9 11 1 44 34 73 73 66 85 101 110 148
102 26 -4 33 -2 29 8 -8 21 16 28 35 11 40 -36 87 1 50 40 l-20 21 120 -5 120
-5 -1 37 c-1 23 6 47 18 63 29 39 44 40 44 4 0 -28 3 -31 31 -31 42 0 92 49
87 87 -2 23 1 29 20 31 12 2 35 -3 51 -11 28 -14 30 -14 41 12 26 64 90 108
133 92 20 -8 26 -5 42 25 43 80 162 163 265 185 42 9 60 8 102 -6 47 -15 51
-15 70 2 11 10 29 35 40 56 23 47 33 50 83 33 l40 -14 -76 -75 c-95 -93 -289
-233 -300 -215 -9 14 4 41 37 81 22 26 33 77 18 77 -3 0 -18 -9 -32 -20 -21
-17 -35 -20 -77 -15 -42 6 -55 3 -75 -13 -31 -25 -19 -40 14 -18 14 9 28 16
32 16 4 0 4 -26 1 -57 -8 -80 -57 -172 -136 -256 -61 -65 -64 -70 -36 -63 68
17 139 83 183 172 18 36 26 42 62 47 23 3 83 29 139 62 150 85 196 92 254 37
15 -14 27 -21 27 -14 0 6 14 27 31 47 35 39 104 65 178 65 25 0 63 3 84 6 31
6 37 11 37 31 0 37 -26 38 -103 4 -85 -37 -93 -38 -100 -11 -6 25 23 47 73 56
46 9 90 31 90 47 0 19 21 36 36 30 9 -3 14 -20 14 -44 0 -32 4 -39 19 -39 19
0 48 33 251 280 89 108 174 187 240 220 22 11 42 20 45 20 12 0 3 -20 -21 -49
l-26 -31 30 6 c17 3 38 1 48 -4 15 -9 24 -5 46 21 19 22 26 26 21 12 -6 -17
-4 -18 9 -7 8 6 32 53 53 102 20 50 45 96 56 103 18 13 18 14 -7 25 l-25 12
27 35 c30 40 33 41 48 19 10 -13 15 -10 36 18 13 18 107 137 210 263 102 127
207 258 234 293 52 69 130 210 141 257 12 52 45 76 45 32 0 -13 -5 -28 -12
-35 -9 -9 -9 -12 3 -12 32 0 79 79 79 132 0 26 6 37 28 50 50 30 127 121 192
227 35 57 88 130 117 162 53 57 54 58 38 83 -23 35 -14 68 46 162 50 79 57
102 39 120 -7 7 -5 16 8 27 17 16 20 16 42 -8 13 -14 27 -25 31 -25 4 0 56 79
115 176 60 97 114 178 120 181 7 2 27 -3 44 -12 27 -14 34 -15 41 -3 13 20 11
28 -10 28 -32 0 -35 21 -8 44 16 13 32 43 42 81 20 70 36 91 76 100 35 8 40
42 8 54 -20 7 -19 10 22 39 47 35 76 41 85 17 10 -24 32 -17 49 16 11 19 22
29 31 25 8 -3 14 -1 14 5 0 7 -10 9 -25 5 -14 -4 -25 -4 -25 -2 0 3 17 32 39
65 21 33 62 118 91 188 58 141 93 214 122 255 19 28 19 28 -1 28 -20 0 -37 32
-26 50 3 5 14 10 23 10 10 0 34 11 54 25 43 29 54 31 66 9 12 -21 14 -16 53
87 536 1443 737 2960 594 4489 -57 606 -170 1209 -337 1802 l-43 153 -5 -80
-5 -80 -13 45 c-114 400 -162 589 -162 638 0 38 -129 371 -245 632 -91 205
-283 593 -391 788 -352 636 -814 1290 -1285 1816 -111 124 -141 151 -174 161
-75 22 -109 48 -270 205 -88 86 -170 162 -183 169 -19 10 -22 9 -22 -7 0 -30
34 -66 139 -147 93 -71 162 -147 147 -162 -3 -4 -12 -1 -18 5 -23 23 -46 13
-58 -25 -18 -55 -39 -75 -69 -68 -77 19 -201 150 -201 212 0 13 11 6 39 -25
21 -23 43 -42 49 -42 26 0 21 24 -15 64 -21 24 -58 78 -83 120 -25 42 -48 76
-51 76 -3 0 -11 -11 -17 -25 -17 -37 -56 -31 -63 10 -3 13 -18 23 -49 32 -24
7 -51 20 -59 28 -14 13 -11 17 27 31 28 12 42 23 42 36 0 14 -8 18 -39 18 -22
0 -71 12 -110 26 -63 23 -73 31 -97 73 -94 164 -294 370 -561 580 -97 76 -142
123 -124 129 6 2 16 13 22 24 9 17 5 25 -26 53 -30 28 -35 37 -26 53 9 17 5
24 -29 46 -48 31 -60 32 -94 5 -21 -16 -26 -17 -26 -5 0 32 -30 46 -103 47
-70 0 -73 2 -101 35 -16 19 -27 37 -25 39 3 2 41 -6 85 -17 47 -13 88 -19 99
-14 19 7 19 8 2 17 -10 6 -46 18 -81 28 -34 10 -79 30 -98 45 l-36 27 -29 -35
c-30 -39 -49 -44 -79 -21 -10 8 -22 15 -27 15 -12 0 33 -82 61 -113 23 -24 24
-29 12 -38 -34 -22 -150 24 -265 106 -89 64 -129 115 -62 80 15 -8 27 -10 27
-5 0 13 -57 54 -116 83 -65 33 -82 52 -66 77 10 17 6 22 -33 46 -50 29 -101
43 -155 44 -101 1 -163 46 -222 164 -53 106 -57 110 -77 92 -15 -14 -22 -10
-70 44 -44 50 -57 60 -85 60 -20 0 -40 -8 -51 -20 -18 -20 -17 -20 10 -20 59
0 128 -72 111 -116 -5 -13 -11 -12 -37 11 -47 39 -116 71 -279 130 -174 63
-281 111 -346 156 l-48 33 -19 -26 -19 -25 -91 47 c-97 51 -193 83 -372 125
-133 31 -253 69 -319 102 -50 25 -65 22 -66 -16 0 -9 -14 1 -33 21 -36 39 -49
44 -138 51 l-56 5 29 -28 c15 -16 28 -33 28 -37 0 -13 -179 -6 -194 6 -9 8
-24 5 -52 -9 -36 -19 -39 -19 -43 -3 -2 9 4 22 13 29 15 11 15 12 0 18 -25 10
-84 7 -151 -8 l-63 -13 0 29 c0 27 -2 29 -29 23 -22 -5 -35 -1 -50 14 -11 11
-18 26 -16 33 4 10 -66 28 -257 69 -207 44 -264 53 -266 42 -2 -7 8 -34 23
-59 33 -56 24 -69 -40 -65 -28 1 -45 -2 -45 -9 0 -15 74 -46 130 -55 l45 -7
-19 21 c-11 12 -17 23 -15 24 8 7 99 -5 94 -12 -4 -8 123 -75 164 -87 21 -5
23 -4 16 12 -4 11 -10 29 -12 41 -8 34 29 19 92 -38 29 -27 56 -49 59 -49 4 0
11 12 17 27 10 28 22 23 33 -14 6 -19 2 -22 -38 -28 -25 -4 -80 -5 -123 -3
-88 4 -147 27 -167 66 -13 24 -15 25 -122 23 -113 -2 -178 -15 -171 -34 2 -7
16 -13 30 -15 23 -3 27 -8 27 -37 0 -51 20 -84 62 -106 58 -30 80 -24 40 9
-40 33 -41 70 -4 88 13 6 28 16 34 22 12 12 113 -29 143 -59 19 -19 19 -21 3
-33 -10 -7 -15 -16 -11 -19 9 -10 43 -9 43 1 0 4 13 23 28 42 l29 34 18 -32
c23 -38 37 -44 72 -31 29 11 37 3 59 -55 10 -27 16 -30 128 -53 119 -24 263
-67 427 -128 l91 -34 -6 25 -6 24 39 -27 c45 -31 55 -50 43 -82 -7 -21 -8 -21
-44 -2 -31 15 -38 16 -42 4 -10 -24 11 -50 54 -67 50 -20 66 -20 74 -1 8 22
33 19 83 -10 l43 -26 22 38 c18 29 24 34 26 20 2 -10 -4 -27 -14 -38 -14 -16
-15 -19 -2 -19 32 0 239 -111 360 -193 125 -84 127 -85 141 -63 l14 21 54 -25
c37 -17 73 -25 115 -25 58 -1 63 -4 96 -41 44 -49 60 -78 52 -98 -4 -11 0 -16
15 -16 17 0 20 6 18 36 -1 25 3 40 15 47 21 14 52 -13 110 -95 63 -90 102
-107 146 -65 l24 22 21 -27 c12 -15 35 -46 52 -70 26 -38 30 -41 33 -20 2 12
5 22 7 22 3 0 29 -25 58 -55 l53 -55 96 0 c88 0 99 -2 125 -24 17 -14 35 -44
42 -68 34 -111 60 -134 186 -163 89 -21 120 -38 148 -80 24 -38 64 -55 129
-55 34 0 51 -12 175 -126 135 -123 221 -214 269 -284 l24 -35 -23 -69 c-12
-37 -31 -79 -43 -91 l-21 -23 60 -49 c72 -57 147 -161 147 -203 0 -32 -23 -50
-63 -50 -30 0 -77 36 -77 58 0 10 -21 29 -48 45 -201 120 -242 157 -263 236
-11 45 -16 49 -108 106 -53 32 -154 97 -226 143 -190 125 -507 322 -516 322
-5 0 -9 5 -9 11 0 7 7 8 18 4 19 -8 114 -33 231 -60 41 -9 93 -25 116 -35 l43
-18 10 22 c16 36 47 38 105 5 91 -51 119 -61 140 -52 18 8 11 14 -47 41 -96
45 -182 104 -326 226 -146 123 -214 166 -313 196 -97 29 -102 32 -102 68 -1
40 -15 51 -140 104 -55 23 -116 57 -136 75 -33 30 -39 32 -68 22 -72 -25 -161
3 -291 91 -102 69 -153 90 -221 90 -55 0 -65 3 -97 31 -47 41 -98 63 -240 104
-65 18 -141 42 -170 53 -51 20 -53 20 -62 1 -18 -32 -82 -44 -170 -31 -148 21
-285 83 -316 143 -19 37 -49 37 -82 2 l-25 -27 -21 28 c-82 114 -108 138 -104
99 4 -53 0 -59 -42 -55 -28 3 -52 -3 -83 -21 -30 -16 -50 -21 -60 -16 -12 7
-14 5 -10 -11 7 -28 -2 -26 -98 19 -46 22 -151 60 -234 86 -186 57 -238 76
-318 116 l-62 32 30 9 c17 4 47 6 67 2 30 -4 39 -2 44 11 9 23 -12 35 -66 35
-104 1 -113 5 -241 127 -66 62 -144 129 -173 149 -46 30 -61 35 -127 38 -80 3
-128 22 -153 58 -28 40 -21 48 44 48 60 0 120 20 120 40 0 18 -60 11 -77 -9
-13 -15 -21 -18 -35 -10 -18 10 -18 19 -1 67 3 7 -3 12 -16 12 -17 0 -21 6
-21 31 0 24 3 30 16 25 9 -3 20 -6 24 -6 5 0 34 -20 63 -44 58 -47 107 -76
130 -76 8 0 22 -9 32 -20 22 -24 55 -26 96 -4 17 8 32 14 33 12 2 -2 18 -26
36 -55 18 -29 37 -50 41 -47 4 2 24 5 44 6 36 1 36 13 0 20 -16 4 -12 8 18 21
35 15 37 18 23 33 -9 8 -16 25 -16 38 0 28 -18 46 -47 46 -29 0 -30 -23 0 -44
19 -15 19 -16 2 -10 -83 29 -122 34 -173 23 -37 -7 -57 -7 -66 0 -7 6 -36 15
-64 22 -58 12 -63 23 -35 70 21 35 13 43 -46 53 -20 3 -75 25 -122 50 -83 42
-86 43 -98 24z m67 -88 c12 -16 22 -32 22 -35 0 -3 -18 -5 -40 -5 -32 0 -40
-4 -40 -19 0 -24 18 -38 54 -43 44 -5 41 -21 -6 -43 -42 -20 -68 -52 -31 -38
14 5 13 1 -6 -20 -16 -17 -35 -27 -53 -27 -24 0 -32 7 -44 35 -20 48 -18 55
15 55 25 0 30 5 36 36 3 20 5 37 3 39 -9 8 -88 -36 -88 -50 0 -26 -24 -16 -50
20 -25 34 -31 35 -77 18 -24 -9 -13 36 12 53 21 14 42 15 135 9 l110 -7 0 26
c0 35 21 33 48 -4z m1717 -420 c24 -26 7 -42 -34 -30 -14 5 -39 12 -56 17 -20
6 -31 16 -33 31 -3 20 0 22 22 16 17 -4 26 -2 26 5 0 15 49 -10 75 -39z m853
-6 c32 -9 65 -24 75 -33 17 -17 15 -18 -40 -13 -62 4 -103 23 -103 47 0 18 0
19 68 -1z m-2834 -75 c-11 -18 -70 -39 -109 -39 -20 0 -50 8 -68 17 l-32 17
35 7 c62 11 182 10 174 -2z m215 -15 c33 -8 65 -23 80 -40 22 -22 23 -25 6
-18 -11 5 -77 10 -146 12 l-126 3 16 34 c16 34 17 34 66 29 28 -3 74 -12 104
-20z m-549 -18 c-10 -9 -29 -12 -55 -8 -32 4 -36 6 -20 13 11 4 36 8 55 8 29
1 32 -1 20 -13z m695 -36 c3 -5 2 -10 -4 -10 -5 0 -13 5 -16 10 -3 6 -2 10 4
10 5 0 13 -4 16 -10z m-3544 -50 c9 0 22 -7 29 -15 10 -12 5 -17 -27 -30 -57
-25 -100 -30 -119 -14 -15 12 -15 14 6 19 23 5 33 18 44 53 5 17 8 17 28 3 12
-9 30 -16 39 -16z m-291 -116 c13 -14 13 -17 -5 -30 -14 -11 -34 -14 -68 -10
-60 7 -72 13 -55 33 29 35 97 39 128 7z m6083 -49 c42 -16 77 -33 77 -37 0
-13 -69 -9 -98 6 -26 14 -87 73 -67 65 6 -2 45 -17 88 -34z m-5983 1 c0 -2
-30 -22 -67 -43 -101 -59 -158 -75 -193 -53 -13 8 -12 11 5 24 38 29 255 90
255 72z m6175 -71 c60 -18 88 -41 61 -51 -40 -15 -126 23 -126 56 0 13 2 13
65 -5z m-6632 -54 c16 -6 13 -12 -26 -48 -50 -46 -79 -59 -104 -44 -15 8 -11
13 30 30 26 11 47 25 47 31 0 14 -7 13 -50 -11 -43 -24 -85 -20 -59 6 39 39
114 55 162 36z m5712 -91 c3 -5 1 -10 -4 -10 -6 0 -11 5 -11 10 0 6 2 10 4 10
3 0 8 -4 11 -10z m2757 -147 c10 -9 18 -22 18 -30 0 -20 -34 -16 -47 6 -10 16
-20 19 -50 14 l-38 -6 20 22 c22 26 65 23 97 -6z m-9232 7 c11 -7 9 -11 -12
-19 -15 -6 -51 -26 -80 -45 -53 -35 -66 -39 -103 -37 -17 1 -15 4 11 20 17 10
52 35 78 55 48 36 78 44 106 26z m9210 -68 c0 -15 -11 -21 -27 -15 -12 5 -12
7 -1 14 17 11 28 11 28 1z m-9279 -112 c-21 -27 -41 -55 -44 -62 -4 -10 -8
-10 -15 1 -9 12 -15 12 -43 -2 -18 -8 -37 -13 -41 -11 -31 20 103 124 160 124
21 0 20 -3 -17 -50z m-165 31 c-3 -4 -27 -16 -53 -26 -86 -32 -160 -74 -182
-101 l-21 -27 0 24 c0 51 57 98 151 123 61 17 113 20 105 7z m9805 -174 c30
-15 77 -46 104 -69 28 -24 63 -53 80 -64 l29 -22 -39 -17 -40 -17 37 -19 c32
-17 68 -53 68 -69 0 -3 -30 -5 -67 -4 l-68 1 -48 64 c-74 99 -136 157 -201
189 l-59 30 34 15 c45 20 104 14 170 -18z m-9836 -9 c31 -14 28 -28 -11 -44
-24 -10 -36 -9 -64 3 l-35 14 24 20 c27 22 49 24 86 7z m8635 -20 c35 -13 60
-38 60 -60 0 -18 -5 -19 -42 -13 -57 10 -97 31 -107 58 -14 37 15 42 89 15z
m-8788 -10 c-20 -20 -14 -35 19 -44 l32 -9 -32 -34 c-29 -31 -33 -33 -50 -17
-28 25 -48 20 -134 -35 -59 -37 -86 -49 -103 -45 -13 4 -24 10 -23 14 0 9 189
134 244 162 44 22 65 26 47 8z m10365 -54 c52 -39 66 -66 52 -98 -7 -14 -15
-26 -19 -26 -4 0 -32 11 -61 24 -30 14 -71 28 -91 31 -32 6 -57 30 -44 42 2 2
27 -8 56 -22 29 -14 55 -24 58 -20 3 3 0 21 -7 40 -21 59 1 71 56 29z m241
-14 c39 -24 38 -44 -2 -48 -34 -4 -76 22 -76 48 0 27 35 26 78 0z m-56 -133
c15 -26 56 -68 96 -99 148 -114 213 -170 247 -215 39 -52 43 -63 18 -63 -41 0
-152 65 -275 160 -34 26 -39 57 -8 40 11 -6 18 -15 15 -21 -4 -5 1 -9 9 -9 41
0 -2 59 -82 112 -31 21 -62 38 -69 38 -17 0 -28 97 -12 116 15 18 15 18 61
-59z m-10942 -87 c0 -33 -170 -181 -385 -335 -82 -59 -174 -128 -203 -152
l-52 -45 -28 29 c-16 15 -45 41 -65 56 -20 15 -37 36 -37 45 0 19 113 120 148
133 12 4 27 3 36 -4 15 -11 15 -14 1 -35 -9 -12 -34 -31 -56 -43 -42 -21 -58
-44 -42 -60 11 -11 117 53 359 221 173 119 301 200 316 200 4 0 8 -4 8 -10z
m10911 -84 c16 -19 93 -83 171 -142 146 -112 291 -241 310 -278 9 -17 6 -16
-21 7 -37 30 -42 32 -59 15 -9 -9 -23 -2 -60 34 -53 51 -193 159 -275 211 -30
19 -64 49 -77 67 -21 30 -41 120 -26 120 4 0 20 -15 37 -34z m-2392 -456 c86
-47 88 -49 83 -98 -4 -42 -5 -43 -36 -36 -40 8 -53 21 -38 36 22 22 13 38 -20
38 -20 0 -51 12 -78 30 -25 16 -54 30 -65 30 -18 1 -17 2 5 15 40 23 87 18
149 -15z m2997 -80 c74 -37 196 -140 254 -214 23 -31 41 -58 39 -60 -12 -13
-122 59 -201 131 -87 79 -155 123 -191 123 -20 0 -22 21 -5 38 18 18 39 15
104 -18z m-12511 4 c0 -20 -98 -94 -124 -94 -23 0 -21 4 29 55 37 37 62 55 75
53 11 -2 20 -8 20 -14z m-102 -184 c4 -4 -8 -22 -29 -39 l-36 -32 -22 20 c-12
12 -28 21 -34 21 -10 0 -19 20 -9 20 1 0 20 7 42 15 38 13 70 12 88 -5z
m10327 -132 c43 -25 52 -38 40 -58 -6 -9 -20 -4 -59 22 -39 26 -48 37 -39 46
15 15 12 16 58 -10z m2770 5 c14 -9 42 -31 62 -50 21 -18 48 -35 60 -38 21 -5
23 -13 25 -70 2 -37 -2 -67 -8 -71 -19 -11 -71 49 -105 124 -24 51 -43 78 -64
90 -16 9 -30 20 -30 25 0 13 35 7 60 -10z m-109 -13 c25 -14 26 -44 0 -35 -15
4 -20 -1 -25 -30 -7 -36 -36 -50 -36 -17 -1 9 -7 28 -14 41 -8 14 -12 31 -9
38 6 16 57 17 84 3z m-2513 -92 c14 -19 25 -58 15 -58 -19 1 -55 41 -49 55 7
18 20 19 34 3z m-11097 -60 c-35 -66 -51 -77 -86 -54 -34 23 -30 52 8 48 18
-2 27 2 27 12 0 18 38 46 61 46 14 0 13 -8 -10 -52z m13445 -129 c97 -138 237
-309 254 -309 5 0 10 10 13 23 3 19 6 17 21 -18 22 -47 13 -83 -24 -103 -38
-19 -98 -7 -124 26 -11 14 -59 69 -104 121 -148 166 -211 263 -212 324 0 30
52 93 69 83 4 -3 53 -69 107 -147z m-2207 115 c129 -75 260 -182 421 -345 68
-68 148 -138 195 -169 44 -29 80 -55 80 -59 -1 -5 -24 -59 -31 -69 -1 -2 -22
7 -46 19 -23 12 -93 69 -153 128 -159 154 -308 286 -429 382 -101 80 -123 109
-99 132 10 10 12 9 62 -19z m1267 -92 c-40 -5 -76 6 -76 22 0 12 9 11 52 -2
47 -15 49 -17 24 -20z m-59 -42 c34 -31 64 -50 79 -50 28 0 30 8 9 36 -21 28
-18 35 11 28 20 -5 25 -4 19 6 -4 6 12 1 35 -12 70 -39 183 -152 312 -311 68
-84 140 -171 162 -195 32 -35 37 -45 25 -53 -34 -22 -70 4 -118 83 -25 42 -76
88 -97 88 -26 0 -14 -22 41 -73 59 -54 68 -82 36 -111 -17 -16 -20 -15 -45 19
-17 22 -35 35 -50 35 -20 0 -26 8 -35 44 -9 37 -25 57 -86 113 -41 37 -75 73
-75 79 0 15 24 24 66 24 41 0 42 4 7 35 -35 30 -49 31 -64 3 -15 -29 -49 -67
-71 -79 -14 -8 -20 -3 -31 24 -8 18 -44 70 -80 114 -64 79 -98 133 -112 181
-9 32 1 28 62 -28z m-12597 26 c0 -8 8 -17 18 -21 28 -11 -30 -55 -74 -55 -19
0 -34 3 -34 6 0 3 14 24 31 45 31 39 59 51 59 25z m14225 -74 c66 -35 133 -74
149 -88 l29 -25 -22 -16 c-12 -8 -35 -35 -50 -60 l-28 -45 -21 34 c-12 18 -53
65 -92 103 -39 39 -78 82 -86 97 -15 29 -19 72 -6 66 4 -1 61 -31 127 -66z
m365 -142 c0 -4 -14 -13 -30 -20 -36 -15 -50 -37 -50 -77 0 -26 3 -29 35 -29
56 0 112 -66 85 -99 -11 -13 -17 -11 -47 15 -52 46 -60 36 -13 -17 23 -27 114
-133 203 -238 88 -104 200 -233 249 -287 58 -63 88 -104 88 -120 0 -36 52
-130 149 -267 130 -185 173 -281 157 -346 -5 -19 -13 -25 -33 -25 -45 0 -107
37 -130 76 l-21 37 29 24 c30 26 35 39 20 62 -7 12 -15 8 -41 -17 -41 -42 -56
-40 -64 6 -9 55 -49 134 -91 181 -32 36 -35 42 -20 48 18 6 23 2 71 -63 12
-16 25 -26 29 -22 14 13 -50 111 -99 152 -110 92 -130 112 -123 131 6 14 14
16 42 11 43 -8 48 10 5 19 -18 4 -43 22 -62 46 -19 23 -40 39 -53 39 -11 0
-26 5 -32 11 -6 6 -69 103 -139 215 -71 112 -133 204 -137 204 -5 0 -20 -9
-34 -20 -27 -21 -43 -19 -43 6 0 8 -12 32 -26 54 -22 33 -24 42 -14 55 12 14
16 13 39 -8 25 -23 63 -47 76 -47 3 0 -20 30 -51 67 -115 135 -128 232 -34
252 39 8 110 2 110 -9z m-640 -229 c15 -28 13 -46 -9 -72 l-18 -23 -18 33
c-20 40 -13 81 15 81 11 0 24 -9 30 -19z m858 -53 c32 -60 36 -92 6 -50 -8 12
-30 24 -48 28 -39 7 -85 49 -70 63 9 9 37 18 65 20 10 1 28 -22 47 -61z
m-2754 -67 c31 -34 3 -24 -30 10 -21 23 -23 29 -9 21 11 -5 29 -20 39 -31z
m109 -5 c73 -33 123 -78 110 -99 -13 -21 -38 -47 -45 -47 -3 0 -8 10 -10 22
-2 14 -19 30 -48 45 -80 43 -90 52 -90 83 0 17 2 30 4 30 3 0 38 -15 79 -34z
m1042 -56 c48 -63 75 -64 100 -4 l14 35 49 -25 c47 -24 70 -50 54 -60 -5 -3
-14 -1 -22 5 -8 5 -32 9 -52 9 -29 0 -38 -4 -38 -17 0 -9 78 -94 173 -188 190
-189 267 -282 327 -399 41 -80 48 -106 28 -106 -6 0 -19 -7 -28 -15 -15 -14
-22 -7 -79 65 -35 44 -139 152 -232 241 -186 178 -245 249 -295 354 -34 72
-53 145 -38 145 5 -1 23 -19 39 -40z m1268 -509 c41 -25 44 -33 22 -51 -12
-10 -21 -6 -50 23 -33 33 -50 78 -22 60 6 -5 29 -19 50 -32z m411 -253 c25
-34 46 -70 46 -81 0 -15 -9 -12 -52 23 -29 23 -56 49 -59 58 -6 16 5 62 15 62
2 0 25 -28 50 -62z m-10435 -600 c-1 -28 -15 -52 -23 -40 -4 7 -20 12 -37 12
-39 0 -37 15 4 28 45 14 57 14 56 0z m-44 -230 c-4 -35 -9 -64 -10 -66 -8 -9
-125 60 -119 69 8 13 103 59 122 59 11 0 12 -13 7 -62z m2870 -4428 c-3 -5
-12 -10 -18 -10 -7 0 -6 4 3 10 19 12 23 12 15 0z m27 -48 c8 -8 6 -11 -8 -10
-10 0 -28 -3 -39 -8 -17 -7 -18 -6 -8 8 7 8 10 18 6 22 -4 3 3 5 15 3 12 -2
27 -8 34 -15z m23 -31 c-2 -5 17 -7 42 -5 32 2 43 0 33 -6 -17 -11 -90 -13
-114 -4 -26 10 -18 21 14 22 17 0 28 -3 25 -7z m-131 -52 c-4 -8 0 -9 15 -4
12 4 21 2 21 -4 0 -13 -37 -15 -44 -2 -3 4 -3 11 1 15 10 10 15 7 7 -5z m31
-79 c17 -6 15 -8 -15 -13 -44 -7 -70 -6 -70 4 0 16 54 22 85 9z m-60 -50 c-3
-5 -11 -10 -16 -10 -6 0 -7 5 -4 10 3 6 11 10 16 10 6 0 7 -4 4 -10z m445 0
c14 -4 18 -8 10 -9 -17 -1 -22 -61 -5 -61 18 0 16 -48 -2 -59 -14 -8 -11 -12
21 -25 20 -8 35 -20 31 -26 -3 -5 0 -10 7 -11 7 0 4 -4 -7 -9 -17 -7 -17 -9
-3 -9 10 -1 24 -14 33 -31 20 -38 19 -40 -7 -41 -17 -1 -19 -2 -5 -6 22 -6 22
-15 -2 -30 -16 -10 -21 -9 -25 5 -3 9 -4 1 -2 -18 2 -19 7 -44 11 -55 10 -25
-43 27 -70 68 l-18 29 -12 -29 c-11 -25 -9 -31 17 -61 36 -42 35 -50 -7 -58
-60 -11 -69 -2 -62 64 4 31 12 125 18 207 6 83 13 156 15 163 4 13 26 14 64 2z
m183 -197 c7 -6 -37 -33 -54 -33 -5 0 -9 7 -9 16 0 10 5 14 16 10 8 -3 12 -2
9 4 -7 11 28 14 38 3z m-3 -58 c5 3 11 1 14 -4 4 -5 -4 -13 -16 -17 -26 -8
-57 24 -36 37 8 5 16 2 21 -7 5 -8 12 -12 17 -9z m-320 -72 c-14 -86 -35 -138
-25 -63 11 80 27 152 32 146 3 -3 0 -41 -7 -83z m215 -33 c3 -5 1 -10 -4 -10
-6 0 -11 5 -11 10 0 6 2 10 4 10 3 0 8 -4 11 -10z m-65 -20 c0 -5 -2 -10 -4
-10 -3 0 -8 5 -11 10 -3 6 -1 10 4 10 6 0 11 -4 11 -10z m125 -30 c10 -11 14
-20 8 -20 -5 0 -18 9 -28 20 -10 11 -14 20 -8 20 5 0 18 -9 28 -20z m-294 -47
c13 -16 12 -17 -3 -4 -17 13 -22 21 -14 21 2 0 10 -8 17 -17z m119 -64 c-14
-25 -23 -24 -15 1 5 17 1 21 -24 26 -25 5 -31 12 -31 31 l0 25 40 -32 c34 -27
38 -35 30 -51z m-130 17 c0 -8 -4 -18 -10 -21 -5 -3 -10 3 -10 14 0 12 5 21
10 21 6 0 10 -6 10 -14z m106 -59 c2 -39 25 -75 43 -70 10 2 23 -3 30 -11 11
-13 10 -17 -4 -22 -10 -4 -21 -1 -26 7 -5 8 -9 10 -9 5 0 -5 -10 -1 -22 10
l-22 19 20 -27 c10 -15 24 -28 30 -28 15 0 40 -30 26 -30 -6 0 -24 11 -40 25
-38 32 -56 32 -49 3 6 -21 4 -21 -18 4 -21 24 -23 34 -18 85 7 71 19 91 42 68
8 -8 16 -25 17 -38z m-61 -327 c29 -46 30 -50 11 -50 -20 0 -46 39 -46 67 0
32 6 29 35 -17z m71 -42 l17 -33 -22 19 c-11 11 -21 25 -21 33 0 21 8 15 26
-19z m-114 -93 c3 -13 1 -22 -3 -19 -9 5 -13 44 -5 44 2 0 6 -11 8 -25z m-15
-62 c-3 -10 -5 -4 -5 12 0 17 2 24 5 18 2 -7 2 -21 0 -30z m-9518 -959 c41
-27 71 -76 71 -116 0 -16 -10 -27 -33 -38 -23 -11 -33 -23 -35 -42 -4 -31 4
-35 28 -13 9 8 30 17 46 21 l29 6 -3 -74 c-4 -69 7 -119 43 -200 5 -12 2 -20
-9 -24 -22 -8 -25 -5 -39 52 -16 62 -37 71 -30 12 5 -42 26 -91 94 -215 27
-49 31 -65 22 -74 -10 -10 -18 -10 -39 0 -38 17 -41 6 -7 -23 16 -14 35 -43
42 -65 8 -27 20 -44 38 -53 25 -12 31 -27 78 -228 28 -118 54 -227 58 -242 7
-26 9 -27 53 -21 45 6 45 6 39 -20 -4 -14 -1 -42 5 -62 10 -31 10 -40 -3 -53
-14 -13 -18 -10 -44 31 -39 65 -55 67 -30 4 51 -133 59 -209 26 -251 -25 -32
-66 -34 -129 -5 l-45 21 46 14 c37 11 49 21 60 46 11 27 11 32 -2 36 -7 3 -29
20 -46 38 -35 34 -43 73 -20 93 15 12 34 -4 56 -46 6 -13 16 -23 21 -23 5 0
-5 30 -22 68 -17 37 -71 171 -120 297 -49 127 -109 275 -133 330 -38 89 -44
111 -48 195 -4 74 -16 131 -52 255 -55 185 -67 296 -42 358 9 20 21 37 27 37
6 0 28 -12 49 -26z m394 -477 c4 -10 -3 -27 -16 -42 l-22 -26 -24 80 c-32 107
-22 133 23 59 18 -30 36 -62 39 -71z m293 -363 c3 -13 3 -36 -1 -51 l-7 -28
-10 25 c-5 13 -21 40 -35 59 -26 33 -26 34 -7 48 17 12 21 11 37 -8 9 -12 20
-32 23 -45z m712 -45 c14 -41 75 -173 137 -294 125 -245 159 -330 173 -431 10
-72 5 -174 -8 -174 -5 0 -16 22 -25 49 -9 27 -22 55 -30 61 -18 15 -52 4 -65
-21 -15 -27 -25 -24 -65 19 -45 49 -51 98 -5 52 24 -24 68 -36 82 -22 7 7 -23
78 -100 234 -62 123 -123 257 -137 300 -31 95 -55 207 -55 258 0 35 3 39 28
43 43 6 44 5 70 -74z m11451 -309 c20 -36 21 -41 6 -46 -25 -10 -69 38 -60 65
10 32 29 25 54 -19z m-1 -61 c9 -1 22 -1 28 0 6 1 29 -22 51 -51 22 -29 69
-83 104 -120 l65 -66 -27 -16 c-21 -12 -27 -25 -32 -66 -13 -106 -71 -196
-153 -236 -42 -21 -63 -25 -93 -20 -36 5 -40 4 -65 -34 -23 -36 -73 -79 -79
-69 -1 2 -9 24 -17 49 -10 29 -22 46 -34 48 -17 4 -16 0 8 -29 l28 -32 -26
-16 c-17 -10 -25 -23 -24 -36 3 -17 -3 -20 -32 -20 -29 0 -38 -5 -50 -30 -11
-23 -38 -41 -109 -75 -98 -48 -131 -77 -131 -116 0 -33 -14 -37 -44 -13 l-26
20 0 -20 c0 -26 -28 -41 -80 -41 -27 0 -40 -4 -38 -12 1 -7 -1 -26 -5 -41 -7
-25 -11 -27 -40 -22 -27 5 -43 0 -87 -31 -62 -41 -99 -55 -130 -47 l-20 5 20
33 c26 43 19 62 -23 57 -32 -3 -66 15 -201 113 -56 40 -66 43 -66 15 0 -11
-18 -40 -40 -64 -22 -24 -40 -48 -40 -53 0 -9 54 -53 65 -53 3 0 5 23 5 52 l0
51 23 -19 c12 -11 35 -28 50 -38 29 -18 29 -18 22 6 -11 35 -11 40 0 44 6 2
20 -17 31 -42 17 -37 19 -47 8 -51 -9 -3 -12 -14 -8 -28 4 -18 -4 -32 -38 -64
-24 -22 -51 -41 -60 -41 -14 0 -18 -8 -18 -34 0 -30 -5 -37 -42 -55 -25 -11
-83 -25 -138 -31 -193 -21 -220 -28 -330 -87 -191 -103 -200 -106 -269 -107
l-64 -1 -33 84 c-19 47 -32 85 -31 86 34 20 82 58 119 93 40 38 49 43 62 33
22 -19 43 -7 50 27 6 24 12 29 39 29 41 0 59 -14 51 -40 -4 -13 -2 -17 5 -13
6 4 11 14 11 22 0 8 5 14 11 14 7 0 9 -12 5 -35 -8 -42 11 -49 20 -7 10 46 14
53 23 48 5 -3 7 -15 4 -26 -7 -27 0 -25 35 10 17 17 39 30 50 30 32 0 52 11
52 28 0 13 3 12 20 -3 11 -10 20 -23 20 -29 0 -25 22 -86 30 -86 15 0 12 31
-5 64 -11 21 -12 32 -4 42 8 10 1 17 -29 33 -42 21 -74 58 -87 100 -6 21 -5
23 14 18 17 -4 21 -1 21 19 0 22 4 24 49 24 54 0 69 9 162 96 62 58 111 77
162 63 30 -8 33 -12 29 -38 -4 -26 -2 -28 23 -23 22 4 35 -4 73 -41 49 -47 90
-73 99 -63 4 3 -1 14 -10 24 -21 24 -21 34 1 53 9 9 22 25 29 35 12 18 13 18
32 -6 l21 -25 -6 35 c-4 19 -11 43 -16 52 -8 17 -10 17 -33 2 -26 -17 -52 -13
-61 9 -3 8 7 41 21 73 l26 59 20 -40 c11 -22 36 -57 56 -77 l37 -38 16 42 c11
31 22 44 39 46 20 3 21 5 8 20 -8 9 -18 28 -22 40 -7 23 -6 23 18 7 14 -9 34
-28 44 -43 l18 -27 5 45 c7 60 28 62 63 5 16 -25 33 -45 39 -45 12 0 -30 59
-79 111 -29 30 -32 38 -20 48 11 8 22 9 41 1 15 -5 34 -10 43 -10 13 0 13 3 3
15 -10 12 -10 19 -2 27 8 8 14 4 21 -15 16 -40 28 -33 45 26 18 63 45 91 80
85 22 -5 24 -2 19 27 -3 21 0 35 12 45 15 12 20 10 42 -18 33 -43 58 -42 73 4
17 52 143 177 208 207 l52 24 -21 27 c-12 15 -18 30 -15 34 4 3 41 9 82 13 80
8 104 20 104 51 0 17 -3 18 -15 8 -9 -7 -25 -10 -41 -6 -22 6 -24 9 -13 22 7
8 29 24 48 34 35 18 36 18 64 -6 16 -13 36 -25 45 -25z m5975 -6 c4 -3 0 -14
-9 -24 -9 -10 -20 -37 -25 -60 -11 -47 -25 -69 -44 -69 -9 0 -9 11 2 48 30 99
52 130 76 105z m-18650 -72 c31 -17 53 -67 32 -75 -8 -3 -29 -2 -48 1 -32 5
-35 8 -41 51 -3 24 -6 57 -6 71 l0 26 18 -30 c10 -16 31 -36 45 -44z m797
-263 c0 -7 3 -23 6 -35 8 -30 -31 -70 -52 -52 -18 15 -18 49 2 77 16 24 44 30
44 10z m-430 -106 c0 -10 22 -65 50 -121 51 -104 68 -166 52 -189 -7 -11 -31
8 -97 77 -83 86 -144 159 -145 172 0 4 10 9 23 13 12 3 38 19 57 35 40 35 60
39 60 13z m503 -30 c34 -16 41 -26 83 -127 74 -176 126 -334 128 -385 1 -55
-16 -93 -51 -109 -48 -22 -44 -27 -105 184 -40 142 -123 355 -138 355 -4 0
-11 -8 -15 -17 -7 -16 -9 -14 -15 7 -13 50 19 110 59 110 9 0 33 -8 54 -18z
m616 -41 c11 -11 24 -37 30 -58 5 -21 14 -56 20 -78 15 -59 71 -113 71 -69 0
9 -16 43 -37 75 l-36 60 19 26 c30 40 41 38 62 -10 11 -25 29 -48 40 -51 17
-6 19 -13 15 -50 -5 -39 1 -56 47 -140 57 -107 55 -121 -21 -96 -47 16 -58 9
-30 -19 12 -12 21 -25 21 -31 0 -19 30 -10 72 20 22 17 52 30 65 30 20 0 23
-5 23 -35 0 -19 16 -76 35 -127 43 -117 58 -187 47 -218 -8 -21 -12 -17 -48
51 -30 55 -46 75 -63 77 -22 4 -23 1 -16 -34 6 -34 5 -37 -10 -24 -13 11 -18
11 -24 1 -11 -17 -92 92 -136 183 -19 39 -62 148 -96 241 -34 94 -72 194 -86
224 -18 43 -21 56 -11 63 19 12 26 10 47 -11z m16757 -66 c-16 -64 -44 -105
-54 -77 -2 7 -12 12 -23 12 -28 0 -23 18 15 56 41 41 71 46 62 9z m-6546 -84
c0 -35 -27 -62 -41 -40 -10 17 -12 53 -2 62 3 4 15 7 25 7 13 0 18 -8 18 -29z
m-9240 -64 c0 -13 22 -49 52 -84 52 -60 53 -61 80 -47 34 17 58 9 58 -21 0
-13 3 -30 6 -38 3 -8 -2 -17 -13 -21 -10 -3 -23 -8 -29 -11 -6 -3 -19 10 -30
30 -21 40 -23 41 -38 20 -9 -13 -21 -6 -74 42 -66 58 -87 92 -77 124 5 15 14
20 58 28 4 0 7 -9 7 -22z m15698 -13 c15 -4 22 -14 22 -30 0 -19 -5 -23 -22
-21 -18 2 -22 -2 -20 -19 3 -20 -37 -64 -58 -64 -7 0 4 95 15 123 7 18 25 21
63 11z m-6714 -79 c25 -52 18 -63 -15 -25 -47 53 -61 78 -54 90 9 15 49 -22
69 -65z m36 52 c0 -7 7 -25 15 -41 12 -23 13 -31 3 -37 -7 -5 -16 -5 -19 -1
-11 11 -29 84 -23 94 7 11 24 0 24 -15z m-10918 -137 c6 -14 14 -58 19 -99 5
-42 17 -88 29 -108 11 -20 19 -37 17 -39 -10 -10 -59 42 -87 91 -17 30 -40 59
-50 65 -16 9 -17 13 -4 47 7 21 13 45 14 54 0 8 5 20 12 27 15 15 36 -1 50
-38z m2092 -105 c23 -14 48 -36 55 -49 11 -20 17 -22 47 -16 18 4 50 17 69 29
30 18 37 19 41 6 8 -19 -9 -40 -45 -54 l-28 -12 25 -52 c28 -60 50 -87 69 -87
19 0 16 12 -13 55 -25 37 -25 39 -7 56 10 10 35 21 55 24 l38 7 -6 -46 c-6
-44 -5 -46 17 -46 13 0 31 5 39 10 12 8 13 11 1 19 -15 9 -7 91 10 91 34 0
152 -155 218 -287 l31 -63 -26 0 c-22 0 -25 -4 -22 -27 3 -26 6 -28 45 -25 22
2 44 -1 47 -6 11 -18 -20 -43 -60 -49 -36 -5 -43 -2 -62 22 -12 15 -25 49 -28
77 -4 31 -11 47 -18 45 -27 -10 -74 23 -109 76 -35 53 -57 76 -57 62 0 -21
138 -203 213 -282 l89 -92 -21 -27 c-26 -34 -27 -51 -1 -59 11 -4 30 -25 42
-48 11 -23 28 -47 36 -53 13 -9 12 -13 -9 -27 -13 -10 -29 -17 -36 -17 -10 0
-10 -7 3 -32 14 -27 15 -39 4 -85 -9 -44 -17 -56 -38 -64 -24 -10 -30 -7 -59
27 -38 43 -41 60 -12 69 14 5 18 12 13 23 -3 10 -9 27 -11 40 -8 34 -21 36
-57 8 -41 -31 -46 -24 -46 70 0 70 -11 81 -35 33 -9 -16 -21 -29 -28 -26 -21
7 -140 162 -206 268 -35 56 -85 151 -112 211 -49 110 -140 256 -185 299 l-24
23 32 33 32 33 24 -30 c13 -16 43 -41 66 -55z m-1883 -108 c-1 -23 -6 -45 -10
-50 -11 -11 -70 13 -81 33 -11 21 0 33 23 24 11 -4 21 5 32 26 22 42 40 25 36
-33z m11555 -32 c9 -21 -23 -65 -46 -65 -30 0 -33 17 -10 50 23 33 47 39 56
15z m-790 -40 c27 -42 -7 -63 -41 -25 -15 16 -15 22 -5 35 17 21 27 19 46 -10z
m-10712 -96 c25 -33 64 -96 88 -140 40 -75 72 -116 123 -154 20 -15 20 -15 1
-30 -16 -12 -22 -12 -46 0 -38 20 -104 97 -151 175 -35 59 -89 187 -89 210 0
21 32 -6 74 -61z m16855 57 l34 -12 -32 -27 c-34 -29 -73 -43 -90 -33 -11 7
29 86 44 85 6 0 25 -6 44 -13z m-15840 -34 c19 -9 36 -23 39 -29 6 -21 -13
-15 -53 17 -42 33 -37 38 14 12z m15790 -177 c-31 -66 -52 -86 -70 -68 -21 21
75 154 99 137 2 -1 -11 -32 -29 -69z m-5648 -3 c-36 -38 -103 -106 -148 -153
-91 -95 -158 -137 -233 -146 -43 -5 -50 -9 -50 -27 0 -17 12 -27 50 -43 104
-44 31 -75 -129 -54 -194 25 -282 9 -330 -57 l-20 -29 47 24 c62 32 149 29
187 -7 24 -22 26 -23 38 -6 7 10 35 22 63 27 27 5 57 12 67 15 28 9 21 -34
-12 -67 -22 -21 -39 -29 -66 -29 -45 0 -96 -23 -113 -50 -10 -17 -10 -25 2
-48 16 -29 20 -21 7 13 -7 18 -2 21 68 31 42 7 116 21 164 32 98 22 110 17 85
-34 -17 -36 -73 -64 -132 -66 -46 -2 -47 -3 -27 -19 12 -10 21 -22 21 -28 0
-16 -43 -13 -66 4 -10 8 -30 15 -43 15 -23 0 -24 -1 -6 -20 24 -26 80 -43 121
-37 31 5 33 4 24 -14 -14 -26 -49 -33 -128 -26 -42 4 -80 2 -102 -6 -30 -10
-35 -17 -38 -47 -4 -44 -35 -78 -79 -86 -18 -3 -33 -12 -33 -18 0 -18 40 -58
53 -54 7 2 25 29 41 61 23 46 33 57 53 57 14 0 60 16 103 35 84 38 96 41 102
24 6 -19 58 32 75 72 19 49 61 85 115 99 84 23 69 -40 -25 -103 -62 -41 -67
-56 -47 -127 13 -43 -2 -57 -69 -65 -77 -10 -120 -25 -131 -45 -14 -27 3 -26
122 4 102 26 202 71 193 86 -10 16 -31 11 -51 -11 -17 -19 -19 -19 -31 -3 -21
28 -15 62 12 80 17 11 25 25 25 45 0 54 40 22 61 -50 13 -45 33 -61 52 -42 8
8 5 11 -11 11 -25 0 -26 1 -11 34 l12 25 25 -19 c38 -30 81 -25 168 21 73 39
76 40 70 17 -4 -12 -10 -32 -13 -43 -7 -31 -215 -115 -286 -115 -18 0 -42 -11
-63 -30 -63 -55 -198 -76 -296 -46 -43 13 -54 11 -234 -35 -181 -45 -387 -80
-400 -67 -3 4 -17 69 -31 145 -23 124 -121 532 -138 576 -4 10 -3 17 5 17 6 0
55 21 108 47 122 60 116 58 108 44 -14 -21 32 -11 105 24 80 38 136 44 182 21
23 -13 27 -13 27 -1 0 8 -4 17 -10 20 -23 14 -6 23 58 29 195 20 340 78 396
158 14 20 18 21 26 8 5 -8 10 -23 10 -32 0 -25 7 -23 53 18 22 20 67 49 101
65 65 30 193 68 237 68 23 1 20 -5 -40 -67z m5360 -296 c20 -4 46 -17 58 -30
l21 -23 -46 -77 c-46 -77 -74 -102 -100 -92 -23 9 -16 34 21 75 32 36 48 91
26 91 -13 0 -110 -121 -273 -340 -160 -214 -222 -289 -233 -278 -20 19 84 209
217 395 50 71 120 172 155 225 l64 98 27 -19 c15 -11 43 -22 63 -25z m-16263
-23 c19 4 27 -4 49 -47 14 -28 64 -106 112 -174 138 -198 141 -203 141 -243 0
-21 -5 -50 -10 -65 l-11 -28 -24 52 c-13 29 -68 118 -120 197 -100 150 -195
319 -195 345 0 8 8 3 18 -13 13 -21 23 -27 40 -24z m1 -219 c23 -20 60 -62 82
-93 21 -31 53 -74 70 -96 34 -45 35 -78 2 -83 -21 -3 -19 -7 23 -62 25 -33 49
-62 55 -65 18 -12 10 -84 -12 -106 -26 -26 -33 -17 -44 51 -9 55 -14 64 -79
165 -103 156 -123 191 -144 248 -12 32 -22 62 -22 67 0 20 27 9 69 -26z m2836
-303 c146 -124 215 -172 336 -235 95 -50 99 -54 83 -70 -9 -10 -25 -15 -35
-13 -27 7 -23 -10 7 -38 30 -28 93 -49 118 -39 12 5 16 0 16 -20 0 -48 27 -92
89 -147 62 -54 91 -91 110 -142 10 -24 8 -28 -21 -43 -41 -21 -98 -13 -148 20
-34 22 -40 23 -51 10 -23 -28 -68 -44 -122 -44 l-55 0 19 -67 c10 -38 57 -204
105 -371 48 -166 84 -305 81 -308 -12 -12 -76 33 -147 105 -100 103 -183 164
-380 281 -193 115 -283 177 -364 251 -55 50 -156 173 -156 189 0 4 30 27 67
51 122 79 183 150 183 212 0 12 5 28 12 35 23 23 45 13 63 -29 25 -53 68 -89
108 -88 29 0 30 1 13 12 -52 33 -78 65 -120 148 -45 89 -45 91 -30 122 13 23
15 47 11 99 -6 67 -5 68 20 74 14 4 48 2 76 -5 27 -6 52 -10 53 -8 2 2 -16 34
-41 72 -25 37 -45 77 -45 88 0 23 -11 31 145 -102z m-2711 -212 c27 -21 32
-43 16 -69 -8 -12 -16 -8 -49 24 -57 56 -30 94 33 45z m462 -23 c28 -6 32 -13
58 -94 38 -116 69 -175 122 -232 46 -49 47 -60 5 -60 -58 1 -106 37 -250 189
-78 83 -147 151 -152 151 -5 0 -9 -17 -9 -39 0 -21 -6 -44 -14 -50 -12 -10
-20 -4 -45 33 -37 53 -40 98 -10 119 19 14 23 12 56 -23 57 -64 162 -106 200
-82 9 6 3 18 -22 42 -23 23 -35 43 -35 62 l0 27 33 -18 c17 -11 46 -22 63 -25z
m15087 -32 c7 -7 -138 -196 -188 -244 l-36 -35 6 28 c7 25 5 27 -24 27 -35 0
-41 21 -16 57 12 18 22 21 51 16 28 -5 38 -2 49 14 72 103 136 159 158 137z
m-6479 -203 c-18 -17 -347 -63 -552 -77 l-104 -7 16 31 c33 65 18 62 349 62
181 0 297 -4 291 -9z m6207 -71 c5 0 9 -6 9 -14 0 -23 -41 -46 -83 -46 -31 0
-38 3 -35 18 4 20 67 54 86 47 8 -3 18 -5 23 -5z m122 -133 c-26 -36 -142
-117 -167 -117 -6 0 28 37 75 83 48 45 92 98 100 117 l14 35 3 -39 c3 -30 -3
-48 -25 -79z m-10885 76 c35 -31 35 -56 1 -89 -26 -23 -29 -25 -20 -7 19 36
14 46 -19 39 -26 -5 -32 -2 -42 19 -22 48 37 75 80 38z m10662 -111 c0 -39
-99 -162 -131 -162 -12 0 -12 2 11 55 11 26 20 58 20 72 0 22 2 24 16 13 13
-11 19 -9 42 13 31 32 42 34 42 9z m-8 -198 c-54 -76 -91 -108 -114 -99 -14 6
-11 13 20 45 20 21 53 56 73 79 20 23 43 41 52 41 13 0 5 -17 -31 -66z
m-14357 -26 c16 -30 17 -39 6 -52 -20 -24 -49 -19 -82 13 -30 31 -40 67 -15
58 8 -3 22 1 33 8 25 19 35 15 58 -27z m13705 -407 c0 -5 -16 -21 -35 -35 -19
-15 -35 -34 -35 -42 0 -23 13 -17 43 21 29 36 57 46 57 21 0 -24 -58 -75 -98
-86 -40 -11 -62 -13 -62 -6 0 8 43 81 59 100 23 27 71 45 71 27z m-280 -229
c0 -26 -201 -174 -216 -159 -3 3 30 42 73 86 66 69 83 81 111 81 17 0 32 -4
32 -8z m10 -118 c0 -39 -73 -80 -115 -64 -34 13 -32 26 8 50 29 18 107 28 107
14z m-11890 -79 c36 -18 71 -62 64 -80 -4 -10 -16 -6 -48 16 -52 35 -70 55
-61 69 8 13 11 13 45 -5z m11625 -94 c3 -6 -1 -13 -9 -18 -8 -4 -16 -24 -18
-43 l-3 -34 -50 3 c-27 1 -54 5 -58 8 -5 3 8 19 29 37 63 53 96 67 109 47z
m-9156 -167 c-15 -18 -22 -13 -13 10 3 9 10 13 16 10 5 -3 4 -12 -3 -20z
m-2609 -154 c32 0 53 -25 46 -54 l-7 -27 -62 43 c-73 51 -93 89 -30 57 20 -10
44 -19 53 -19z m5300 -161 c0 -13 -61 -39 -92 -39 -43 0 -169 33 -156 42 20
12 248 10 248 -3z m-4455 -159 c24 -16 45 -35 48 -42 5 -16 -10 -48 -23 -48
-15 0 -81 62 -90 84 -17 45 6 47 65 6z m4023 -826 c43 -30 19 -54 -56 -54 -66
0 -124 53 -69 63 50 10 104 6 125 -9z"/>
<path d="M11040 10456 c0 -2 7 -7 16 -10 8 -3 12 -2 9 4 -6 10 -25 14 -25 6z"/>
<path d="M10936 10177 c3 -10 9 -15 12 -12 3 3 0 11 -7 18 -10 9 -11 8 -5 -6z"/>
<path d="M14027 7153 c-4 -3 -7 -14 -7 -24 0 -15 7 -18 40 -16 44 2 45 4 26
30 -13 17 -47 23 -59 10z"/>
<path d="M13806 7095 c24 -19 79 -29 101 -20 15 6 13 9 -12 21 -16 7 -48 13
-69 14 -37 0 -39 -1 -20 -15z"/>
<path d="M13995 7099 c-4 -6 -13 -8 -20 -5 -18 7 -37 -18 -29 -38 6 -15 81
-42 91 -33 2 3 0 14 -6 25 -8 16 -8 21 3 24 10 2 7 8 -9 21 -16 11 -26 13 -30
6z"/>
<path d="M13502 6928 c-19 -19 -14 -38 14 -48 49 -19 59 -4 25 38 -22 26 -23
26 -39 10z"/>
<path d="M13595 6803 c11 -3 29 -12 40 -19 21 -15 122 -19 143 -5 18 11 -86
31 -152 30 -28 -1 -42 -4 -31 -6z"/>
<path d="M13875 6778 c-11 -6 -33 -22 -48 -35 -27 -21 -27 -23 -7 -23 25 0
110 47 110 61 0 12 -31 11 -55 -3z"/>
<path d="M13460 6566 c0 -8 -5 -16 -11 -18 -8 -3 -8 -10 2 -26 19 -30 33 -22
37 21 2 28 -1 37 -12 37 -9 0 -16 -6 -16 -14z"/>
<path d="M12780 6478 c-33 -46 -38 -60 -15 -52 8 4 15 10 15 14 0 4 11 24 25
44 34 50 12 46 -25 -6z"/>
<path d="M12615 6431 c-16 -10 -44 -38 -62 -63 -32 -45 -32 -46 -13 -63 11
-10 20 -25 20 -33 0 -8 22 15 50 51 27 36 64 75 82 88 l32 23 -24 7 c-41 11
-53 10 -85 -10z"/>
<path d="M12778 5213 c-20 -16 -44 -33 -54 -40 -18 -11 -18 -12 4 -12 23 -1
102 63 91 73 -3 4 -22 -6 -41 -21z"/>
<path d="M12610 5110 c-13 -8 -12 -10 4 -10 11 0 34 -5 52 -12 40 -14 72 -5
54 17 -14 17 -87 20 -110 5z"/>
<path d="M5131 4466 c-21 -22 -21 -26 -9 -51 13 -24 118 -94 118 -79 0 15 -71
154 -79 154 -4 0 -18 -11 -30 -24z"/>
<path d="M5460 4400 c8 -6 51 -29 95 -52 44 -22 88 -47 98 -56 24 -21 31 -9
17 30 -11 29 -21 36 -79 56 -75 27 -156 40 -131 22z"/>
<path d="M9010 20693 c-8 -3 -23 -14 -33 -24 -10 -9 -50 -25 -88 -34 -72 -18
-82 -27 -49 -45 28 -15 210 29 210 50 0 9 7 26 16 38 15 21 14 22 -13 21 -15
0 -35 -3 -43 -6z"/>
<path d="M8713 20633 c9 -2 25 -2 35 0 9 3 1 5 -18 5 -19 0 -27 -2 -17 -5z"/>
<path d="M12810 20600 c-30 -30 -25 -36 30 -38 53 -1 61 6 33 30 -33 28 -42
29 -63 8z"/>
<path d="M12935 20580 c-9 -14 -7 -15 30 -27 17 -5 30 -16 30 -24 0 -9 29 -21
85 -36 46 -12 86 -20 88 -19 6 7 -73 67 -113 85 -52 25 -111 35 -120 21z"/>
<path d="M9170 20556 c-8 -8 -44 -26 -80 -39 -36 -14 -73 -28 -82 -32 -14 -6
-18 -2 -18 16 0 19 -2 21 -10 9 -6 -9 -5 -19 3 -28 29 -36 217 31 217 78 0 14
-13 13 -30 -4z"/>
<path d="M8862 20517 c-34 -8 -41 -13 -36 -26 4 -9 9 -31 12 -48 5 -42 15 -41
41 0 11 18 29 41 40 51 21 19 20 37 -2 35 -7 -1 -31 -6 -55 -12z"/>
<path d="M11624 20492 c5 -14 1 -25 -12 -34 -35 -25 -35 -38 0 -27 48 13 98
11 104 -5 3 -8 13 -12 25 -9 11 3 18 8 16 12 -2 3 -10 21 -17 39 -13 28 -19
32 -51 32 -21 0 -45 3 -54 7 -14 5 -16 2 -11 -15z"/>
<path d="M13268 20498 c18 -18 14 -28 -10 -28 -22 -1 -22 -1 3 -15 14 -7 72
-32 130 -55 57 -23 115 -48 127 -57 13 -8 26 -13 28 -10 6 6 -6 37 -15 37 -3
0 -12 4 -20 9 -11 7 -9 13 10 32 l24 24 -71 6 c-52 4 -89 14 -137 37 -68 34
-89 40 -69 20z"/>
<path d="M8651 20419 c-73 -49 -78 -55 -57 -78 22 -24 20 -31 -6 -31 -31 0
-40 -8 -60 -53 -22 -45 -42 -55 -68 -32 -21 19 -70 14 -95 -12 -16 -16 -21
-73 -6 -73 5 0 33 11 63 25 37 17 70 25 110 25 l57 0 -9 31 c-6 21 -5 31 3 33
16 4 68 22 90 31 14 6 17 2 17 -29 0 -29 5 -39 25 -48 32 -15 27 -30 -13 -40
-30 -8 -46 -38 -21 -38 13 0 108 72 109 83 0 4 -8 7 -19 7 -32 0 -43 24 -35
82 6 48 6 52 -9 40 -23 -19 -101 -12 -105 10 -5 28 34 56 97 69 48 10 58 16
49 26 -18 23 -54 14 -117 -28z"/>
<path d="M8298 20434 c-38 -20 -36 -44 3 -44 21 0 32 -6 36 -18 4 -17 9 -16
59 9 30 15 75 31 99 35 25 3 45 10 45 14 0 23 -201 27 -242 4z"/>
<path d="M9050 20354 c-8 -3 -51 -8 -94 -12 -76 -7 -79 -8 -62 -24 10 -10 31
-18 48 -18 36 0 178 42 178 53 0 7 -43 8 -70 1z"/>
<path d="M9223 20350 c-25 -10 -30 -41 -10 -58 10 -8 16 -6 25 9 10 15 24 19
65 19 53 0 88 13 74 27 -12 11 -129 14 -154 3z"/>
<path d="M11350 20271 c-18 -12 -17 -13 110 -42 52 -12 107 -28 123 -36 23
-11 27 -11 27 0 0 22 -34 47 -82 61 -62 19 -160 28 -178 17z"/>
<path d="M9000 20261 c-80 -25 -231 -126 -265 -177 -15 -23 -14 -24 7 -24 32
0 91 33 168 93 36 28 89 66 119 84 50 30 52 33 25 32 -16 0 -40 -4 -54 -8z"/>
<path d="M7760 20236 c-98 -26 -200 -96 -200 -136 0 -27 11 -50 22 -50 6 0 8
14 5 34 -5 32 -4 34 31 40 20 3 75 24 122 46 57 27 99 40 128 40 45 0 54 13
23 30 -25 13 -74 12 -131 -4z"/>
<path d="M8266 20222 c-8 -15 -17 -44 -21 -65 -4 -20 -9 -37 -11 -37 -3 0 -16
7 -30 16 -18 12 -28 14 -36 6 -14 -14 35 -46 59 -38 10 3 29 23 43 43 14 21
38 52 54 70 l28 33 -36 0 c-29 0 -38 -5 -50 -28z"/>
<path d="M6513 19868 c-52 -27 -59 -34 -43 -40 25 -9 71 4 109 33 66 49 23 53
-66 7z"/>
<path d="M13200 19699 c-24 -20 -24 -21 -5 -35 10 -8 36 -14 57 -14 31 0 38 4
38 19 0 40 -55 59 -90 30z"/>
<path d="M17360 18324 c37 -53 132 -159 142 -159 31 0 11 29 -69 101 -48 43
-81 69 -73 58z"/>
<path d="M17490 18142 c0 -4 17 -24 37 -43 l37 -34 -33 43 c-33 42 -41 49 -41
34z"/>
<path d="M19886 6746 c-54 -75 -100 -156 -87 -156 5 0 22 20 37 45 14 25 30
45 35 45 9 0 62 110 56 116 -1 2 -20 -21 -41 -50z"/>
<path d="M19750 6455 c-19 -19 -40 -35 -47 -35 -17 0 -16 -4 5 -40 l19 -30 18
38 c26 54 46 102 42 102 -2 0 -18 -16 -37 -35z"/>
<path d="M19605 6359 c-14 -29 -23 -39 -36 -36 -14 4 -16 0 -9 -22 8 -27 2
-50 -35 -139 -19 -46 -17 -56 8 -46 21 8 41 53 68 149 12 44 28 92 35 108 12
23 12 27 1 27 -8 0 -22 -18 -32 -41z"/>
<path d="M19498 5993 c-36 -15 -38 -18 -38 -62 0 -46 -21 -91 -42 -91 -7 0 -9
15 -5 40 7 52 -6 51 -37 -2 -23 -41 -37 -96 -51 -202 -4 -27 -9 -56 -12 -65
-6 -20 82 126 170 282 36 64 63 117 59 116 -4 -1 -24 -8 -44 -16z"/>
<path d="M19174 5479 c-16 -19 -45 -70 -63 -114 -39 -90 -60 -125 -105 -172
-32 -35 -26 -44 12 -17 12 8 22 12 22 7 0 -4 25 29 54 74 54 83 120 225 114
245 -2 6 -17 -5 -34 -23z"/>
<path d="M19230 5485 c0 -8 2 -15 4 -15 2 0 6 7 10 15 3 8 1 15 -4 15 -6 0
-10 -7 -10 -15z"/>
<path d="M18845 4971 c-29 -6 -30 -7 -25 -55 l5 -49 31 44 c53 76 54 74 -11
60z"/>
<path d="M18637 4807 c-39 -34 -40 -47 -2 -47 20 0 39 17 74 63 24 31 -30 20
-72 -16z"/>
<path d="M18670 4690 c0 -5 5 -10 10 -10 6 0 10 5 10 10 0 6 -4 10 -10 10 -5
0 -10 -4 -10 -10z"/>
<path d="M18562 4548 c-17 -18 -50 -58 -74 -89 -24 -31 -94 -119 -156 -195
-62 -77 -90 -114 -62 -84 57 61 310 364 323 386 13 22 3 17 -31 -18z"/>
<path d="M4960 3879 c0 -14 13 -40 30 -59 40 -48 39 -64 -5 -57 -33 5 -35 4
-35 -21 0 -40 52 -123 102 -163 23 -20 78 -59 120 -88 43 -28 102 -71 132 -96
48 -39 56 -42 67 -28 21 25 99 11 187 -33 102 -52 227 -171 237 -227 9 -47 28
-56 67 -33 38 23 53 10 67 -55 6 -28 18 -64 27 -82 l17 -31 11 34 c9 27 16 34
31 32 75 -14 107 -12 169 7 88 27 92 27 100 -9 4 -24 15 -35 48 -50 57 -26 66
-25 60 5 -4 22 -1 25 22 25 15 0 45 -9 67 -20 l39 -21 -42 82 c-24 45 -63 102
-88 128 l-44 46 -6 -40 c-4 -32 -9 -41 -28 -43 -40 -6 -158 36 -207 74 -44 33
-48 34 -70 20 -13 -9 -27 -25 -30 -37 -7 -21 -8 -20 -38 8 -18 16 -55 46 -83
66 -62 45 -86 78 -86 122 0 31 -3 34 -46 45 -25 6 -58 18 -74 26 -29 15 -29
15 -26 -8 2 -18 11 -24 47 -30 25 -4 49 -12 54 -17 11 -11 14 -67 5 -77 -8 -7
-317 214 -480 344 -73 58 -174 146 -225 195 -81 78 -93 87 -93 66z"/>
<path d="M17924 3819 c-10 -12 -98 -87 -194 -166 -96 -80 -222 -193 -280 -252
-79 -81 -130 -122 -207 -169 -126 -78 -180 -126 -197 -175 -14 -41 -93 -117
-261 -250 -107 -85 -145 -119 -80 -72 33 24 318 246 360 280 6 6 15 21 18 35
10 39 71 93 107 94 24 1 54 21 133 89 232 202 653 607 631 607 -6 0 -19 -10
-30 -21z"/>
<path d="M17466 3649 c-23 -18 -56 -67 -56 -84 0 -18 33 2 80 50 51 52 53 55
29 55 -15 0 -38 -9 -53 -21z"/>
<path d="M5290 3312 c0 -10 10 -28 23 -40 20 -19 26 -20 50 -9 35 16 34 33 -3
52 -40 21 -70 19 -70 -3z"/>
<path d="M8280 3220 c-13 -8 -13 -10 0 -14 46 -16 132 -35 180 -40 52 -6 54
-5 30 9 -32 19 -146 55 -174 55 -11 0 -28 -4 -36 -10z"/>
<path d="M5306 3207 c-17 -12 -15 -16 25 -47 24 -18 49 -40 56 -48 16 -19 33
-7 33 23 0 15 -13 35 -37 54 -42 35 -51 37 -77 18z"/>
<path d="M5530 3159 c0 -12 46 -35 100 -49 25 -7 62 -21 82 -31 21 -11 38 -15
38 -10 0 17 -52 51 -94 61 -22 5 -60 16 -83 24 -24 7 -43 10 -43 5z"/>
<path d="M16540 3082 c0 -12 5 -24 10 -27 16 -10 11 -23 -11 -30 -12 -4 -60
-43 -106 -86 -49 -45 -99 -83 -117 -87 -17 -5 -31 -12 -31 -18 0 -18 55 -15
100 5 50 22 149 111 171 153 18 35 18 82 -1 98 -13 10 -15 9 -15 -8z"/>
<path d="M15936 2828 c-9 -12 -16 -29 -16 -38 -1 -8 -9 -39 -19 -67 l-18 -53
24 0 c31 0 47 40 39 103 l-5 48 33 -7 c39 -7 56 10 27 25 -30 17 -48 13 -65
-11z"/>
<path d="M4830 2763 c0 -10 7 -28 15 -40 13 -19 13 -21 -5 -26 -34 -9 -22 -24
38 -52 33 -15 81 -50 113 -81 50 -49 56 -53 52 -30 -6 29 -2 31 30 15 23 -11
-13 25 -156 154 -63 57 -87 73 -87 60z"/>
<path d="M15796 2731 c-35 -36 -68 -55 -139 -81 -27 -10 -27 -10 -10 -36 16
-25 16 -27 -3 -37 -10 -6 -31 -23 -45 -38 l-26 -28 -14 32 c-8 19 -24 34 -38
37 -34 8 -36 24 -6 44 14 9 25 23 25 31 0 34 -20 20 -59 -42 -37 -58 -39 -65
-20 -60 38 10 58 -9 65 -63 l6 -49 27 19 c35 26 80 30 94 8 14 -21 -17 -58
-82 -96 -37 -22 -41 -27 -25 -32 38 -14 63 4 114 82 l38 57 -24 16 c-28 18
-31 35 -6 35 28 0 42 20 42 60 0 20 6 45 14 56 13 16 18 17 36 6 17 -10 26
-10 51 3 41 22 55 55 37 89 l-14 26 -38 -39z"/>
<path d="M15419 2697 c-19 -12 -64 -67 -102 -122 -37 -55 -84 -116 -104 -137
-43 -44 -39 -47 20 -17 63 33 149 128 196 219 23 44 38 80 33 80 -5 0 -24 -10
-43 -23z"/>
<path d="M16639 2693 c-13 -16 -12 -17 4 -4 9 7 17 15 17 17 0 8 -8 3 -21 -13z"/>
<path d="M16599 2663 c-13 -16 -12 -17 4 -4 16 13 21 21 13 21 -2 0 -10 -8
-17 -17z"/>
<path d="M16529 2613 c-13 -16 -12 -17 4 -4 16 13 21 21 13 21 -2 0 -10 -8
-17 -17z"/>
<path d="M6950 2577 c0 -9 5 -19 11 -23 6 -3 9 -20 7 -36 -5 -34 3 -40 83 -57
63 -13 104 -45 79 -62 -8 -5 -32 -14 -52 -19 -53 -15 -105 1 -213 64 -126 74
-132 75 -86 13 22 -28 74 -117 116 -197 105 -199 139 -241 211 -264 79 -25
136 -79 136 -129 0 -40 9 -44 48 -22 57 33 100 9 100 -56 0 -34 5 -42 33 -59
17 -11 40 -20 49 -20 27 0 51 -45 43 -77 -13 -54 -49 -56 -155 -8 -83 38 -130
45 -130 20 0 -30 -29 -14 -39 22 -6 20 -8 39 -6 41 2 3 18 -1 35 -8 37 -15 56
-3 45 28 -13 44 -87 40 -102 -4 l-9 -27 -27 24 c-15 13 -46 53 -70 89 -38 58
-103 118 -115 105 -11 -10 31 -56 68 -75 46 -23 49 -33 19 -58 -54 -44 -53
-43 -7 -69 24 -13 75 -56 115 -95 69 -68 73 -71 91 -55 25 23 78 22 209 -5 66
-13 147 -22 210 -22 91 -1 105 1 132 22 l32 23 26 -20 c31 -26 50 -26 94 -3
25 12 59 17 124 18 64 0 97 5 115 16 36 23 108 44 249 73 69 15 147 38 175 53
l51 26 -30 6 c-45 10 -104 40 -118 61 -21 29 -145 64 -460 129 -409 83 -561
136 -698 244 -54 42 -119 126 -119 152 0 25 30 2 80 -62 28 -36 67 -72 90 -84
54 -27 66 -26 45 7 -10 14 -32 64 -50 110 -18 45 -49 105 -69 133 -20 28 -36
52 -36 55 0 11 37 4 56 -10 10 -8 29 -15 42 -15 17 0 22 6 22 24 0 25 -16 36
-53 36 -12 0 -34 7 -49 14 -26 14 -28 13 -28 -5 0 -10 -10 -29 -21 -40 -18
-18 -29 -20 -65 -15 -45 6 -146 49 -201 86 -27 18 -33 19 -33 7z"/>
<path d="M15911 2569 c-1 -20 -53 -69 -116 -109 l-50 -32 65 6 c83 8 165 47
186 88 l16 31 -40 -6 c-34 -6 -40 -4 -50 16 -7 15 -11 17 -11 6z"/>
<path d="M16351 2495 c-51 -35 -98 -69 -105 -75 -6 -7 37 20 97 59 59 39 107
74 107 76 0 7 2 9 -99 -60z"/>
<path d="M5150 2513 c0 -5 16 -32 35 -61 38 -56 106 -112 137 -112 26 0 22 17
-7 36 -15 10 -25 24 -23 35 2 12 -15 29 -57 56 -85 55 -85 55 -85 46z"/>
<path d="M15274 2390 c-132 -89 -126 -100 18 -34 122 57 116 53 98 64 -28 18
-58 10 -116 -30z"/>
<path d="M9173 2394 c-7 -3 -13 -10 -13 -15 0 -11 73 -49 95 -49 19 0 20 33 2
49 -17 13 -67 22 -84 15z"/>
<path d="M5380 2334 c0 -45 49 -71 78 -42 19 19 15 26 -18 33 -16 4 -32 11
-35 16 -10 14 -25 10 -25 -7z"/>
<path d="M8398 2324 c3 -18 -3 -33 -24 -55 l-28 -30 29 -24 c17 -13 32 -24 35
-25 3 0 11 30 18 66 9 50 10 70 1 80 -19 23 -37 17 -31 -12z"/>
<path d="M15052 2325 c-7 -15 -26 -28 -51 -36 -23 -7 -48 -20 -57 -31 -16 -17
-16 -18 15 -18 39 0 128 37 135 56 14 38 -26 65 -42 29z"/>
<path d="M15431 2284 c-12 -37 -20 -69 -17 -71 5 -5 51 19 80 41 18 14 18 16
-3 42 -11 15 -21 33 -21 40 0 34 -19 8 -39 -52z"/>
<path d="M8030 2316 l-95 -11 115 -39 c81 -27 134 -39 180 -40 l65 -1 3 31 c2
25 -3 37 -24 53 -31 24 -84 26 -244 7z"/>
<path d="M14570 2275 c-20 -11 -21 -14 -7 -15 10 0 27 5 38 10 31 17 24 -17
-11 -50 -38 -35 -118 -56 -159 -42 -26 9 -32 8 -46 -14 -9 -14 -15 -36 -13
-49 l3 -25 124 56 c69 30 137 58 153 61 15 3 28 7 28 8 0 8 -68 75 -76 75 -5
-1 -20 -7 -34 -15z"/>
<path d="M15942 2235 c-85 -47 -272 -165 -272 -172 0 -2 15 4 33 15 17 11 94
56 170 101 116 69 149 92 135 91 -2 0 -31 -16 -66 -35z"/>
<path d="M15283 2219 c-52 -26 -113 -91 -113 -122 1 -21 2 -20 28 9 15 17 53
53 85 79 47 39 60 46 68 34 7 -11 9 -11 9 4 0 23 -25 22 -77 -4z"/>
<path d="M15640 2183 l-35 -15 30 -14 c55 -24 95 -15 95 22 0 20 -5 24 -27 24
-16 -1 -44 -8 -63 -17z"/>
<path d="M15418 2133 c-74 -46 -77 -50 -78 -85 0 -20 -5 -40 -12 -44 -16 -10
17 -22 61 -23 28 -1 32 2 26 17 -20 45 0 75 83 129 29 19 50 38 47 43 -13 20
-53 8 -127 -37z"/>
<path d="M14031 2048 c-5 -13 -12 -31 -15 -41 -3 -9 -16 -21 -28 -26 -22 -8
-22 -8 -3 -18 29 -16 146 -28 123 -13 -22 13 -24 50 -3 50 26 0 16 18 -15 29
-17 5 -29 15 -28 22 5 22 -22 20 -31 -3z"/>
<path d="M13740 1952 c0 -34 29 -62 66 -62 24 0 34 5 34 15 0 10 -10 15 -31
15 -28 0 -31 3 -27 25 4 21 1 25 -18 25 -16 0 -24 -6 -24 -18z"/>
<path d="M15175 1911 c-44 -20 -149 -100 -142 -108 7 -6 60 22 117 63 26 18
62 40 81 48 31 14 32 15 9 15 -14 0 -43 -8 -65 -18z"/>
<path d="M15260 1860 c-13 -25 -5 -25 40 0 l35 19 -32 1 c-22 0 -36 -6 -43
-20z"/>
<path d="M14280 1854 c-19 -8 -58 -33 -87 -55 -29 -23 -71 -47 -95 -53 -41
-13 -41 -13 -14 -20 50 -12 123 24 246 123 23 19 23 21 5 20 -11 0 -36 -7 -55
-15z"/>
<path d="M13830 1763 c0 -3 7 -14 16 -24 27 -30 19 -34 -120 -67 -41 -10 -43
-28 -6 -47 36 -18 37 -18 108 49 43 41 51 63 30 84 -13 13 -28 16 -28 5z"/>
<path d="M12875 1670 c-38 -4 -78 -5 -87 -2 -13 3 -17 0 -12 -11 3 -8 15 -18
27 -21 59 -16 197 2 233 29 17 13 13 14 -36 13 -30 0 -86 -4 -125 -8z"/>
<path d="M13500 1650 c-8 -6 -46 -19 -84 -31 -64 -19 -116 -54 -116 -79 0 -14
31 -12 53 4 9 7 17 20 17 29 0 20 14 29 34 21 10 -4 16 -18 16 -40 0 -38 0
-38 50 -20 33 12 33 13 13 20 -30 10 -29 17 7 49 17 15 30 34 30 42 0 18 0 18
-20 5z"/>
<path d="M13602 1647 c-21 -8 -29 -16 -23 -22 5 -6 11 -23 13 -40 l3 -30 33
32 c32 31 39 63 17 69 -5 1 -25 -3 -43 -9z"/>
<path d="M12925 1535 c-39 -20 -39 -20 -13 -23 l28 -3 -31 -27 c-30 -25 -31
-26 -10 -34 12 -4 26 -19 33 -33 12 -27 36 -39 62 -29 22 9 16 38 -9 42 -44 8
-31 17 21 14 62 -4 122 14 168 52 l30 23 -22 12 c-27 15 -53 8 -90 -24 l-28
-24 -50 37 -49 37 -40 -20z"/>
<path d="M7810 1525 c0 -35 106 -69 129 -41 22 26 3 39 -49 32 -38 -5 -49 -3
-54 9 -7 19 -26 20 -26 0z"/>
<path d="M14516 1524 c-8 -21 -3 -26 18 -18 18 7 17 25 -1 31 -6 2 -13 -4 -17
-13z"/>
<path d="M10967 1523 c-4 -3 -7 -19 -7 -35 0 -28 0 -28 30 -13 41 21 77 19
139 -10 29 -14 49 -20 44 -13 -6 7 -13 24 -16 38 -6 23 -11 25 -59 25 -29 0
-69 3 -89 8 -19 4 -38 4 -42 0z"/>
<path d="M10245 1500 c-38 -10 -88 -19 -110 -20 -32 -1 -36 -3 -20 -10 51 -22
159 -5 190 30 10 11 16 19 14 19 -2 -1 -35 -9 -74 -19z"/>
<path d="M14362 1480 c-17 -28 -177 -102 -329 -151 -73 -24 -133 -47 -133 -51
0 -9 345 111 467 163 40 17 42 20 31 39 -16 25 -20 25 -36 0z"/>
<path d="M7997 1475 c10 -27 80 -56 125 -53 45 3 67 28 25 28 -14 0 -44 9 -68
20 -54 24 -91 26 -82 5z"/>
<path d="M12451 1462 c-52 -16 -53 -18 -37 -35 10 -9 27 -17 39 -17 29 0 82
43 73 58 -9 15 -9 15 -75 -6z"/>
<path d="M12836 1427 c-19 -14 -45 -22 -72 -22 -57 0 -62 -9 -27 -42 29 -27
33 -28 74 -17 28 7 43 16 41 24 -2 7 2 26 9 42 15 38 10 41 -25 15z"/>
<path d="M8345 1390 c12 -19 85 -50 132 -56 67 -9 46 9 -47 41 -81 28 -94 30
-85 15z"/>
<path d="M12395 1361 l-30 -6 30 -12 c57 -22 74 -24 115 -13 68 18 45 41 -38
39 -26 -1 -60 -4 -77 -8z"/>
<path d="M12135 1305 c18 -17 25 -33 22 -45 -4 -16 -2 -18 13 -10 31 16 60 11
86 -15 39 -39 44 -35 57 47 4 24 0 27 -39 37 -24 6 -71 11 -105 11 l-62 0 28
-25z"/>
<path d="M11857 1291 c4 -18 -15 -45 -39 -53 -6 -2 -9 -12 -5 -21 8 -20 34
-12 42 13 7 22 42 32 65 20 10 -5 20 -7 23 -4 11 11 -6 35 -34 49 -39 21 -58
19 -52 -4z"/>
<path d="M11756 1278 c-9 -12 -16 -28 -16 -35 0 -18 -6 -16 -38 7 -35 26 -58
18 -72 -25 -6 -18 -22 -45 -36 -60 -14 -15 -24 -28 -22 -29 2 0 12 -6 23 -12
16 -9 21 -7 30 10 6 12 31 32 57 46 60 33 85 56 93 87 8 34 0 39 -19 11z"/>
<path d="M11990 1245 c-13 -14 -41 -30 -62 -35 -38 -11 -43 -16 -32 -43 4 -12
15 -10 62 14 31 16 81 32 110 36 28 3 52 10 52 16 0 5 -18 7 -45 3 -40 -6 -46
-5 -53 14 -8 21 -8 21 -32 -5z"/>
<path d="M10750 1217 c-75 -21 -250 -90 -250 -98 0 -5 14 -24 30 -43 l30 -34
28 28 c59 58 214 61 417 8 75 -19 82 -19 118 -5 23 10 37 23 37 34 0 15 -7 18
-42 15 -30 -2 -60 4 -98 21 -52 24 -54 26 -31 35 l25 9 -29 19 c-36 24 -168
30 -235 11z"/>
<path d="M9043 1208 c-28 -13 -28 -20 -3 -43 18 -16 20 -16 46 4 16 12 41 21
62 21 29 0 33 2 22 15 -15 18 -93 19 -127 3z"/>
<path d="M11088 1207 c-61 -14 -85 -27 -51 -27 12 0 81 -21 155 -46 145 -50
235 -61 295 -35 52 21 29 34 -48 27 -38 -3 -69 -2 -69 2 0 24 44 45 102 51
l63 6 -60 14 c-86 19 -317 24 -387 8z"/>
<path d="M10280 1130 c-26 -26 -26 -43 0 -35 15 5 24 -1 38 -24 9 -17 20 -31
25 -31 11 0 8 18 -3 22 -7 2 -6 10 3 22 11 15 19 16 49 8 20 -6 41 -6 49 -1
10 6 8 9 -9 9 -34 0 -64 19 -58 36 9 23 -70 18 -94 -6z"/>
<path d="M8280 1110 c-8 -5 -26 -10 -39 -10 -23 0 -23 -1 -7 -19 25 -28 78
-36 93 -14 21 28 16 53 -9 53 -13 0 -30 -5 -38 -10z"/>
<path d="M12890 1005 c-46 -18 -20 -18 50 0 48 11 50 13 20 13 -19 0 -51 -6
-70 -13z"/>
<path d="M12828 983 c7 -3 16 -2 19 1 4 3 -2 6 -13 5 -11 0 -14 -3 -6 -6z"/>
<path d="M12788 973 c7 -3 16 -2 19 1 4 3 -2 6 -13 5 -11 0 -14 -3 -6 -6z"/>
<path d="M12383 929 c-5 -5 -37 -19 -69 -29 l-59 -20 59 6 c75 7 86 12 86 35
0 22 -2 23 -17 8z"/>
</g>
</svg>
